HIERARCHY
ROOT Hips
{
    OFFSET 0.000000 0.000000 0.000000
    CHANNELS 6 Xposition Yposition Zposition Zrotation Xrotation Yrotation
    JOINT Spine
    {
        OFFSET -0.000000 7.246840 0.000000
        CHANNELS 3 Zrotation Xrotation Yrotation
        JOINT Spine1
        {
            OFFSET -0.000000 20.289354 0.000000
            CHANNELS 3 Zrotation Xrotation Yrotation
            JOINT Neck
            {
                OFFSET -0.000000 20.206032 1.836912
                CHANNELS 3 Zrotation Xrotation Yrotation
                JOINT Head
                {
                    OFFSET -0.000000 12.372654 -1.767522
                    CHANNELS 3 Zrotation Xrotation Yrotation
                    End Site
                    {
                        OFFSET -0.000000 22.094025 0.000000
                    }
                }
            }
            JOINT LeftShoulder
            {
                OFFSET 3.465871 17.201674 -0.568930
                CHANNELS 3 Zrotation Xrotation Yrotation
                JOINT LeftArm
                {
                    OFFSET 14.070313 0.000000 0.000000
                    CHANNELS 3 Zrotation Xrotation Yrotation
                    JOINT LeftForeArm
                    {
                        OFFSET 26.549477 0.000000 0.000000
                        CHANNELS 3 Zrotation Xrotation Yrotation
                        JOINT LeftHand
                        {
                            OFFSET 18.880413 0.000000 0.000000
                            CHANNELS 3 Zrotation Xrotation Yrotation
                            End Site
                            {
                                OFFSET 13.256415 0.000000 0.000000
                            }
                        }
                    }
                }
            }
            JOINT RightShoulder
            {
                OFFSET -3.526370 17.201674 -0.568930
                CHANNELS 3 Zrotation Xrotation Yrotation
                JOINT RightArm
                {
                    OFFSET -14.070313 0.000000 0.000000
                    CHANNELS 3 Zrotation Xrotation Yrotation
                    JOINT RightForeArm
                    {
                        OFFSET -26.549477 0.000000 0.000000
                        CHANNELS 3 Zrotation Xrotation Yrotation
                        JOINT RightHand
                        {
                            OFFSET -18.880413 0.000000 0.000000
                            CHANNELS 3 Zrotation Xrotation Yrotation
                            End Site
                            {
                                OFFSET -13.256415 0.000000 0.000000
                            }
                        }
                    }
                }
            }
        }
    }
    JOINT LeftUpLeg
    {
        OFFSET 8.837609 0.000000 0.000000
        CHANNELS 3 Zrotation Xrotation Yrotation
        JOINT LeftLeg
        {
            OFFSET -0.000000 -41.345005 0.000000
            CHANNELS 3 Zrotation Xrotation Yrotation
            JOINT LeftFoot
            {
                OFFSET -0.000000 -35.500874 0.000000
                CHANNELS 3 Zrotation Xrotation Yrotation
                JOINT LeftToeBase
                {
                    OFFSET -0.000000 -5.744446 13.256415
                    CHANNELS 3 Zrotation Xrotation Yrotation
                    End Site
                    {
                        OFFSET -0.000000 0.000000 3.535044
                    }
                }
            }
        }
    }
    JOINT RightUpLeg
    {
        OFFSET -8.837609 0.000000 0.000000
        CHANNELS 3 Zrotation Xrotation Yrotation
        JOINT RightLeg
        {
            OFFSET -0.000000 -41.345005 0.000000
            CHANNELS 3 Zrotation Xrotation Yrotation
            JOINT RightFoot
            {
                OFFSET -0.000000 -35.500874 0.000000
                CHANNELS 3 Zrotation Xrotation Yrotation
                JOINT RightToeBase
                {
                    OFFSET -0.000000 -5.744446 13.256415
                    CHANNELS 3 Zrotation Xrotation Yrotation
                    End Site
                    {
                        OFFSET -0.000000 0.000000 3.535044
                    }
                }
            }
        }
    }
}
MOTION
Frames:    10
Frame Time:    0.010000
10.961195    82.326485    -52.073647    3.422314    5.001935    -4.342833    -4.364051    -14.772409    -0.148915    0.697290    0.872879    0.411938    -1.235727    31.652266    -2.105148    4.157084    -7.708819    -1.513163    18.932394    1.577841    6.921562    -28.634783    13.432662    -14.200080    6.059787    -10.108261    -8.440444    -38.787460    -9.097573    -1.640332    -15.556795    -0.057056    14.450049    22.539497    3.657790    8.908281    -2.456818    -3.475492    0.591531    4.055028    -3.140717    9.095273    -4.633158    5.159953    3.196547    -1.446558    -10.240799    -1.662601    6.497280    1.542434    -3.258332    -1.454135    -1.162361    2.049943    -8.583369    1.107726    2.541901    8.347076    -10.615973    4.254776    -1.788777    1.360807    -9.323154    -0.623636    2.291962    1.091668    
10.967352    82.327591    -52.081268    3.413349    4.994393    -4.332978    -4.400252    -14.772402    -0.150810    0.845376    0.888166    0.413317    -1.484514    31.574442    -2.076156    4.305365    -7.623174    -1.491948    18.736557    1.525970    6.927078    -28.488504    13.507759    -14.207692    6.017303    -10.123306    -8.466419    -38.745495    -9.109978    -1.655058    -15.745302    -0.107205    14.399429    22.607353    3.723484    8.941366    -2.417684    -3.566901    0.577530    3.847026    -3.247018    9.159563    -4.623787    5.164492    3.173491    -1.454382    -10.254239    -1.689361    6.476357    1.556071    -3.228963    -1.458652    -1.167896    2.056379    -8.581407    1.118175    2.600940    8.347471    -10.629646    4.163649    -1.793232    1.341982    -9.250305    -0.613037    2.343427    1.072546    
10.972278    82.328499    -52.089382    3.411545    4.992589    -4.324376    -4.417359    -14.780859    -0.155117    0.864094    0.885420    0.411437    -1.496562    31.525162    -2.057662    4.329129    -7.543083    -1.471756    18.710068    1.537608    6.923272    -28.459177    13.502336    -14.232327    6.029109    -10.047070    -8.475806    -38.776665    -9.047440    -1.609602    -15.750116    -0.118100    14.399590    22.580425    3.755189    8.921780    -2.427008    -3.606952    0.604552    3.901040    -3.281727    9.171740    -4.627161    5.156255    3.204546    -1.461583    -10.248302    -1.704012    6.500904    1.561989    -3.276112    -1.476948    -1.180676    2.082333    -8.580550    1.108871    2.585232    8.342295    -10.615743    4.164683    -1.772380    1.341983    -9.195151    -0.596680    2.399584    1.043326    
10.978127    82.328537    -52.096409    3.405292    4.983580    -4.307809    -4.413589    -14.776155    -0.158794    0.840799    0.871524    0.407483    -1.479245    31.504383    -2.061863    4.368359    -7.495239    -1.466818    18.732426    1.534196    6.915109    -28.450325    13.546568    -14.250869    6.048932    -10.021297    -8.472692    -38.810986    -9.031244    -1.576620    -15.731750    -0.122977    14.400957    22.560572    3.730077    8.905630    -2.422546    -3.607518    0.608493    3.965440    -3.274775    9.237588    -4.621584    5.159011    3.186066    -1.457487    -10.247358    -1.732398    6.527745    1.571650    -3.205842    -1.439260    -1.154965    2.028884    -8.578788    1.112792    2.565902    8.343805    -10.603844    4.176370    -1.781243    1.334996    -9.238295    -0.595647    2.370544    1.041831    
10.985615    82.329597    -52.103127    3.405937    4.977248    -4.289989    -4.418777    -14.785360    -0.162914    0.834861    0.880286    0.404350    -1.511619    31.478083    -2.053493    4.447721    -7.467803    -1.447201    18.735159    1.511882    6.898793    -28.435772    13.586763    -14.248078    6.061276    -10.027352    -8.483499    -38.875965    -9.041912    -1.556345    -15.743246    -0.127354    14.388676    22.547110    3.724359    8.911392    -2.418421    -3.616760    0.602631    4.042654    -3.276860    9.267902    -4.633035    5.156527    3.188812    -1.445721    -10.248236    -1.716768    6.487649    1.570457    -3.265663    -1.455835    -1.093103    2.051471    -8.588821    1.114964    2.585223    8.348786    -10.602640    4.132684    -1.758931    1.345968    -9.264583    -0.600865    2.338237    1.051308    
10.992799    82.329979    -52.109726    3.400920    4.964808    -4.269629    -4.425284    -14.774654    -0.168131    0.835008    0.866290    0.399662    -1.455046    31.483154    -2.076066    4.405060    -7.480656    -1.470611    18.733742    1.541517    6.884298    -28.436222    13.557439    -14.268348    6.070282    -10.093142    -8.489551    -38.900433    -9.099547    -1.576390    -15.729081    -0.127024    14.370180    22.507637    3.708549    8.929396    -2.408718    -3.618749    0.583761    4.093774    -3.275103    9.269286    -4.639889    5.159488    3.203956    -1.452124    -10.230306    -1.681415    6.556272    1.546593    -3.328483    -1.464835    -1.137558    2.064712    -8.590055    1.121085    2.569486    8.345468    -10.588349    4.152302    -1.749348    1.337013    -9.317729    -0.612506    2.316313    1.071916    
10.999496    82.329689    -52.116013    3.397220    4.953348    -4.248588    -4.442422    -14.777334    -0.178125    0.860923    0.875231    0.391659    -1.494290    31.458868    -2.070508    4.464714    -7.465606    -1.458616    18.715117    1.531018    6.881715    -28.431477    13.547404    -14.273017    6.053148    -10.150200    -8.508790    -38.879028    -9.151098    -1.594322    -15.757768    -0.127120    14.358479    22.511124    3.609360    8.962046    -2.411038    -3.582323    0.532165    4.136600    -3.236489    9.263023    -4.633231    5.163405    3.178874    -1.466210    -10.226626    -1.688570    6.571900    1.559827    -3.326701    -1.465704    -1.150809    2.066105    -8.595545    1.126068    2.571045    8.348474    -10.569252    4.184945    -1.752403    1.319442    -9.266851    -0.571749    2.374926    0.999988    
11.007357    82.329636    -52.122425    3.394717    4.939910    -4.231441    -4.434938    -14.776540    -0.175163    0.847952    0.878948    0.393803    -1.507489    31.460089    -2.071145    4.507484    -7.487508    -1.451610    18.709873    1.521644    6.864425    -28.422739    13.535609    -14.278992    6.037207    -10.208107    -8.514629    -38.877857    -9.193104    -1.642938    -15.771587    -0.138408    14.350753    22.503195    3.658386    8.954807    -2.406575    -3.615402    0.519357    4.138611    -3.270205    9.249565    -4.641155    5.169073    3.184828    -1.465719    -10.214278    -1.647054    6.547597    1.543519    -3.408411    -1.475127    -1.165476    2.079572    -8.601867    1.134994    2.584230    8.344363    -10.578498    4.156273    -1.759319    1.350092    -9.352176    -0.618929    2.300142    1.083336    
11.013342    82.328377    -52.130508    3.390848    4.930987    -4.212737    -4.447587    -14.775395    -0.183914    0.857469    0.880772    0.386468    -1.454811    31.456148    -2.078241    4.459393    -7.517814    -1.459808    18.715063    1.523174    6.870927    -28.434481    13.511537    -14.307769    6.025940    -10.244990    -8.510444    -38.854668    -9.223268    -1.666630    -15.780380    -0.141961    14.355783    22.526876    3.480025    8.973188    -2.430945    -3.554873    0.455200    4.134579    -3.211399    9.244315    -4.639138    5.167384    3.176766    -1.454180    -10.211631    -1.746892    6.558823    1.558898    -3.300269    -1.464422    -1.134485    2.064092    -8.604096    1.134590    2.585460    8.352350    -10.549612    4.172611    -1.760663    1.305539    -9.315124    -0.580426    2.396743    1.014936    
11.021701    82.329025    -52.136715    3.389514    4.918616    -4.198807    -4.432888    -14.777498    -0.180225    0.826850    0.883707    0.388590    -1.425996    31.469629    -2.089949    4.464339    -7.554241    -1.465460    18.722164    1.511644    6.854635    -28.440262    13.478409    -14.315968    6.028790    -10.291887    -8.510852    -38.836502    -9.265305    -1.681169    -15.773541    -0.125866    14.364671    22.501228    3.519335    8.941002    -2.421990    -3.613361    0.492811    4.081403    -3.274674    9.209993    -4.641313    5.174077    3.165595    -1.461372    -10.205266    -1.691611    6.556720    1.562794    -3.339860    -1.444306    -1.176961    2.036269    -8.612321    1.139764    2.573399    8.363318    -10.536776    4.168296    -1.778114    1.310400    -9.461722    -0.629866    2.260645    1.102928    
